<svg width="214" height="72" viewBox="0 0 214 72" fill="none" xmlns="http://www.w3.org/2000/svg">
<circle cx="36" cy="36" r="36" fill="white"/>
<path fill-rule="evenodd" clip-rule="evenodd" d="M30.5559 71.591L30.1616 31.9768L53.2271 39.0828L55.5218 66.2526C49.898 69.889 43.1957 72 36.0003 72C34.1495 72 32.3314 71.8603 30.5559 71.591Z" fill="#DC7E3F"/>
<path fill-rule="evenodd" clip-rule="evenodd" d="M30.5558 71.591C25.6434 70.8458 21.0571 69.1079 17.0076 66.5883L18.2169 43.6807L30.1615 31.9768L30.5558 71.591Z" fill="#B24A32"/>
<path d="M30.1614 31.1408L53.6387 38.6648L53.2268 39.0828L30.1614 31.9768V31.1408Z" fill="#783C13"/>
<path d="M17.8047 43.2627L30.1612 31.1408V31.9768L18.2166 43.6807L17.8047 43.2627Z" fill="#732A1A"/>
<path d="M17.8047 42.4267L30.1612 30.3048V31.1408L17.8047 43.2627V42.4267Z" fill="#B24A32"/>
<path d="M30.1614 30.3048L53.6387 37.8287V38.6647L30.1614 31.1408V30.3048Z" fill="#DC7E3F"/>
<path d="M18.6289 39.0827L30.1616 27.3788V30.3048L18.6289 41.5907V39.0827Z" fill="#D26A52"/>
<path d="M30.1614 27.3788L51.9912 34.9028L52.403 37.4107L30.1614 30.3048V27.3788Z" fill="#E79259"/>
<path d="M31.397 23.6168L47.8723 29.4688L48.2842 33.6487L31.397 27.7968V23.6168Z" fill="#E79259"/>
<path d="M22.3357 32.8128L31.3971 23.6168V27.7968L30.1615 27.3788L22.3357 35.3207V32.8128Z" fill="#D26A51"/>
<path d="M23.571 28.6328L31.3968 20.6908V23.6168L23.571 31.5587V28.6328Z" fill="#D26A51"/>
<path d="M31.397 20.6908L44.5772 25.7068V28.3168L31.397 23.6168V20.6908Z" fill="#E79259"/>
<path d="M27.69 15.2569L31.3969 11.0769V20.6909L27.2781 24.8708L27.69 15.2569Z" fill="#D26A51"/>
<path d="M33.8684 12.3309L41.6942 14.8389L42.1061 24.871L33.4565 21.5269L33.8684 12.3309Z" fill="#E79259"/>
<path d="M34.6919 11.0769L42.5177 14.0029L41.6939 14.8389L33.8682 12.3309L34.6919 11.0769Z" fill="#E79259"/>
<path d="M34.6919 10.2409L41.282 12.7489V13.5849L34.6919 11.0769V10.2409Z" fill="#E79259"/>
<path d="M34.6919 8.98691L42.1058 11.9129L41.282 12.7489L34.6919 10.2409V8.98691Z" fill="#E79259"/>
<path d="M34.6919 8.15094L39.6345 10.2409V11.0769L34.6919 8.98693V8.15094Z" fill="#E79259"/>
<path d="M26.8665 14.8389L31.3972 9.82294V11.0769L27.6902 15.2569L26.8665 14.8389Z" fill="#D26A51"/>
<path d="M29.3374 11.0769L31.3968 8.98691V9.8229L29.3374 12.3309V11.0769Z" fill="#D26A51"/>
<path d="M41.6942 22.3629L45.4012 25.2888L44.5774 25.7068L38.811 23.6168L41.6942 22.3629Z" fill="#E79259"/>
<path d="M26.4543 23.6168L28.1018 24.0348L23.5711 29.0508L22.7473 28.6328L26.4543 23.6168Z" fill="#D26A51"/>
<ellipse rx="1.04983" ry="2.57508" transform="matrix(0.964511 0.264044 -0.256889 0.966441 25.7671 29.127)" fill="#B24A32"/>
<ellipse rx="2.02181" ry="2.69954" transform="matrix(0.805344 -0.592807 0.581469 0.813568 40.9189 26.6392)" fill="#783C13"/>
<ellipse rx="2.02181" ry="2.69954" transform="matrix(0.805344 -0.592807 0.581469 0.813568 41.1853 26.1755)" fill="#FFF4F4"/>
<ellipse rx="2.02181" ry="2.69954" transform="matrix(0.805344 -0.592807 0.581469 0.813568 41.1853 26.1755)" fill="#FFF4F4"/>
<path d="M31.397 8.98693L31.8089 8.56894L32.6326 8.98693H33.8683L34.692 8.15094V11.0769L33.4564 21.5268L31.397 20.6908V8.98693Z" fill="#E79259"/>
<path d="M99.0882 32.8889L84.9055 37.6285L99.0882 42.5951L113.271 37.6285L99.0882 32.8889Z" fill="#B99B4A"/>
<path d="M88.0748 29.3079V19.48H84.9861V17.037H93.6572V19.48H90.5968V29.3079H88.0748Z" fill="white"/>
<path d="M101.733 29.3081V24.3941H98.0207V29.3081H95.5271V16.9811H98.0207V21.895H101.733V16.9811H104.227V29.28H101.733V29.3081Z" fill="white"/>
<path d="M106.975 29.3081V16.9811H113.493V19.4521H109.469V21.9231H112.728V24.3941H109.469V26.8652H113.493V29.3362L106.975 29.3081Z" fill="white"/>
<path d="M128.54 42.2248L118.282 16.9811H123.921L128.965 29.6731L133.868 17.2338H134.094L138.997 29.6731L144.04 16.9811H149.68L139.45 42.2248H138.543L133.981 31.2737L129.447 42.2529L128.54 42.2248Z" fill="white"/>
<path d="M153.703 42.2246V17.009H166.426V22.0353H158.775V27.0615H165.463V32.0878H158.775V37.1141H166.851V42.1404L153.703 42.2246Z" fill="white"/>
<path d="M172.037 16.9811H182.125C186.659 16.9811 189.464 20.1822 189.351 24.6469C189.266 26.5563 188.614 28.5219 186.999 29.6451C188.671 30.7683 189.634 32.7058 189.634 34.6714C189.634 38.8833 186.234 42.2529 182.125 42.2529H172.037V16.9811ZM177.138 27.1179H180.198H181.643C183.088 27.1179 183.995 25.9666 183.995 24.5626C183.995 23.1586 183.088 22.0074 181.643 22.0074H177.109V27.1179H177.138ZM177.138 37.2266H180.198H181.643C183.088 37.2266 184.222 36.1034 184.222 34.6714C184.222 33.2393 183.117 32.1722 181.643 32.1722H177.109V37.2266H177.138Z" fill="white"/>
<path d="M91.3615 49.0759C86.3742 49.0759 86.3742 56.6575 91.3615 56.6575C92.4383 56.6575 93.3168 56.3486 93.7985 56.0959L94.1385 58.6792C93.3734 58.9881 92.2683 59.2127 91.3899 59.2127C82.8604 59.2127 82.8888 46.5768 91.3899 46.5768C92.2683 46.5768 93.1184 46.7453 93.8835 47.0823L93.6001 49.6656C93.0901 49.3848 92.4667 49.0759 91.3615 49.0759Z" fill="white"/>
<path d="M102.158 46.5207C110.829 46.5207 110.829 59.3532 102.158 59.3532C93.5437 59.3532 93.5437 46.5207 102.158 46.5207ZM102.158 49.076C97.1141 49.076 97.1141 56.7699 102.158 56.7699C107.202 56.7979 107.202 49.076 102.158 49.076Z" fill="white"/>
<path d="M113.521 59.1846H110.999V46.4926H111.651L117.998 53.8214V46.8015H120.549V59.4654H119.897L113.549 52.4455L113.521 59.1846Z" fill="white"/>
<path d="M125.905 49.2445V51.7436H129.107V54.2427H125.905V59.2409H123.411V46.7735H129.674V49.2726L125.905 49.2445Z" fill="white"/>
<path d="M131.742 59.1849V46.7175H138.033V49.2166H134.264V51.7157H137.579V54.2148H134.264V56.7139H138.231V59.213L131.742 59.1849Z" fill="white"/>
<path d="M146.845 59.1849L144.295 54.4394H143.076V59.1849H140.554V46.7175H145.513C149.99 46.7175 150.444 52.9512 146.732 54.0463L149.65 59.1849H146.845ZM143.105 52.0246H145.315C147.015 52.0246 147.015 49.2447 145.315 49.2447H143.105V52.0246Z" fill="white"/>
<path d="M151.351 59.1849V46.7175H157.642V49.2166H153.844V51.7157H157.16V54.2148H153.844V56.7139H157.84V59.213L151.351 59.1849Z" fill="white"/>
<path d="M162.742 59.1846H160.22V46.4926H160.872L167.22 53.8214V46.8015H169.77V59.4654H169.118L162.771 52.4455L162.742 59.1846Z" fill="white"/>
<path d="M178.413 49.0759C173.425 49.0759 173.425 56.6575 178.413 56.6575C179.49 56.6575 180.368 56.3486 180.85 56.0959L181.19 58.6792C180.425 58.9881 179.32 59.2127 178.441 59.2127C169.912 59.2127 169.94 46.5768 178.441 46.5768C179.32 46.5768 180.17 46.7453 180.935 47.0823L180.651 49.6656C180.113 49.3848 179.49 49.0759 178.413 49.0759Z" fill="white"/>
<path d="M183.145 59.1849V46.7175H189.663V49.2166H185.667V51.7157H188.983V54.2148H185.667V56.7139H189.663V59.213L183.145 59.1849Z" fill="white"/>
<path d="M197.022 20.5095L198.699 21.1168V26.258L197.022 26.887V30.3795L213.161 23.8501V23.5247L197.022 16.9953V20.5095ZM201.668 25.0258V22.1056L205.825 23.5878L201.668 25.0258ZM197.145 39.5347C197.145 40.6103 197.403 41.9655 197.791 42.9121L200.982 42.5033C200.68 41.9225 200.292 40.8685 200.292 39.5347C200.292 33.447 209.69 33.447 209.69 39.5347C209.69 40.8685 209.324 41.6214 209.022 42.2022L212.191 42.5679C212.601 41.6429 212.795 40.6103 212.795 39.5347C212.795 29.1231 197.145 29.1016 197.145 39.5347ZM197.145 48.4701H205.746L201.607 52.4135L205.746 56.3569L197.145 56.3353V59.4599H212.795V58.4902L206.026 52.4135L212.795 46.3368V45.3456H197.145V48.4701Z" fill="#B99B4A"/>
</svg>
